HIERARCHY
ROOT joint_Root
{
	OFFSET 0.0 0.0 0.0
	CHANNELS 6 Xposition Yposition Zposition Zrotation Xrotation Yrotation 
	JOINT Hips
	{
		OFFSET 4.5925 91.4895 -427.239
		CHANNELS 6 Xposition Yposition Zposition Zrotation Xrotation Yrotation 
		JOINT Spine
		{
			OFFSET 15.7357 0.0 0.0
			CHANNELS 6 Xposition Yposition Zposition Zrotation Xrotation Yrotation 
			JOINT Chest
			{
				OFFSET 8.98455 -0.406207 0.0
				CHANNELS 6 Xposition Yposition Zposition Zrotation Xrotation Yrotation 
				JOINT Neck
				{
					OFFSET 16.3773 0.0 0.0
					CHANNELS 6 Xposition Yposition Zposition Zrotation Xrotation Yrotation 
					JOINT Head
					{
						OFFSET 6.45672 0.0 0.0
						CHANNELS 6 Xposition Yposition Zposition Zrotation Xrotation Yrotation 
						End Site
						{
							OFFSET 0.0 0.0 0.0
						}
					}
				}
				JOINT Shoulder_L
				{
					OFFSET 12.9942 -0.242716 4.98039
					CHANNELS 6 Xposition Yposition Zposition Zrotation Xrotation Yrotation 
					JOINT UpperArm_L
					{
						OFFSET 5.34809 0.0 0.0
						CHANNELS 6 Xposition Yposition Zposition Zrotation Xrotation Yrotation 
						JOINT LowerArm_L
						{
							OFFSET 24.3286 1.87007e-05 0.0
							CHANNELS 6 Xposition Yposition Zposition Zrotation Xrotation Yrotation 
							JOINT Hand_L
							{
								OFFSET 22.2916 0.0 0.0
								CHANNELS 6 Xposition Yposition Zposition Zrotation Xrotation Yrotation 
								End Site
								{
									OFFSET 0.0 0.0 0.0
								}
							}
						}
					}
				}
				JOINT Shoulder_R
				{
					OFFSET 12.9945 -0.242716 -4.98039
					CHANNELS 6 Xposition Yposition Zposition Zrotation Xrotation Yrotation 
					JOINT UpperArm_R
					{
						OFFSET -5.34813 0.0 0.0
						CHANNELS 6 Xposition Yposition Zposition Zrotation Xrotation Yrotation 
						JOINT LowerArm_R
						{
							OFFSET -24.3289 0.000322201 0.0
							CHANNELS 6 Xposition Yposition Zposition Zrotation Xrotation Yrotation 
							JOINT Hand_R
							{
								OFFSET -22.2915 -0.000108084 0.0
								CHANNELS 6 Xposition Yposition Zposition Zrotation Xrotation Yrotation 
								End Site
								{
									OFFSET 0.0 0.0 0.0
								}
							}
						}
					}
				}
			}
		}
		JOINT UpperLeg_L
		{
			OFFSET -2.19248 -6.46944 0.0
			CHANNELS 6 Xposition Yposition Zposition Zrotation Xrotation Yrotation 
			JOINT LowerLeg_L
			{
				OFFSET 39.0811 0.0 -1.23785e-05
				CHANNELS 6 Xposition Yposition Zposition Zrotation Xrotation Yrotation 
				JOINT Foot_L
				{
					OFFSET 40.9854 0.0 -1.26872e-05
					CHANNELS 6 Xposition Yposition Zposition Zrotation Xrotation Yrotation 
					JOINT Toes_L
					{
						OFFSET 11.7543 0.0 0.0
						CHANNELS 6 Xposition Yposition Zposition Zrotation Xrotation Yrotation 
						End Site
						{
							OFFSET 0.0 0.0 0.0
						}
					}
				}
			}
		}
		JOINT UpperLeg_R
		{
			OFFSET -2.19251 6.46944 0.0
			CHANNELS 6 Xposition Yposition Zposition Zrotation Xrotation Yrotation 
			JOINT LowerLeg_R
			{
				OFFSET -39.0811 -0.00228153 -0.0401928
				CHANNELS 6 Xposition Yposition Zposition Zrotation Xrotation Yrotation 
				JOINT Foot_R
				{
					OFFSET -40.9854 0.0 0.0
					CHANNELS 6 Xposition Yposition Zposition Zrotation Xrotation Yrotation 
					JOINT Toes_R
					{
						OFFSET -11.7543 0.0 0.0
						CHANNELS 6 Xposition Yposition Zposition Zrotation Xrotation Yrotation 
						End Site
						{
							OFFSET 0.0 0.0 0.0
						}
					}
				}
			}
		}
	}
}
MOTION
Frames:	4
Frame Time:	0.0333333
0.000000 0.000000 0.000000 0.000000 0.000000 -0.000000 -2.175200 84.066600 0.362507 86.371800 -8.456440 9.372120 15.735700 0.000005 -0.000001 81.349000 82.098300 -81.982600 8.984550 -0.406207 -0.000000 7.849840 -2.367660 -1.103530 16.377300 -0.000001 -0.000001 -2.092280 2.504070 1.180690 6.456720 -0.000001 -0.000000 -5.927020 6.505550 -0.959696 12.994200 -0.242716 4.980390 -90.974700 3.023240 -72.120900 5.348090 -0.000007 -0.000001 -61.624100 27.654300 -9.852590 24.328600 0.000019 0.000005 10.833300 18.792600 -30.712500 22.291600 -0.000001 0.000005 14.085300 5.326280 -0.696995 12.994500 -0.242716 -4.980390 87.512500 10.103400 -76.089900 -5.348130 -0.000001 -0.000004 -61.971100 3.069690 -7.858470 -24.328900 0.000322 -0.000009 -2.222670 -17.984600 -7.146830 -22.291500 -0.000108 -0.000004 13.615700 5.443860 -4.392330 -2.192480 -6.469440 -0.000000 -169.944000 -12.773500 -12.236500 39.081100 -0.000007 -0.000012 -0.510115 0.329383 57.150700 40.985400 -0.000006 -0.000013 -1.522370 2.763020 -84.287400 11.754300 -0.000000 0.000003 -0.000580 -0.004507 -16.741300 -2.192510 6.469440 -0.000001 -178.695000 11.638500 167.233000 -39.081100 -0.002282 -0.040193 0.061707 -0.039516 55.954500 -40.985400 0.000008 0.000006 8.428680 4.944920 -83.471200 -11.754300 -0.000006 -0.000006 -0.147678 -0.190471 -17.253000
0.000000 0.000000 0.000000 0.000000 0.000000 -0.000000 -3.737450 85.517900 1.089230 85.385400 -3.012270 9.242490 15.735700 0.000005 -0.000001 77.448600 82.656800 -79.636600 8.984550 -0.406207 -0.000000 6.520310 -3.158040 -4.191780 16.377300 -0.000001 -0.000001 -1.081020 1.883260 0.683138 6.456720 -0.000001 -0.000000 -5.185100 5.333490 1.380440 12.994200 -0.242716 4.980390 -90.774200 2.347530 -71.741700 5.348090 -0.000007 -0.000001 -61.810900 20.523000 -10.864800 24.328600 0.000019 0.000005 10.012100 17.822500 -29.978000 22.291600 -0.000001 0.000005 17.056400 5.257940 1.199130 12.994500 -0.242716 -4.980390 87.646600 8.647890 -74.710800 -5.348130 -0.000001 -0.000004 -57.372300 -13.447100 -5.530950 -24.328900 0.000322 -0.000009 -0.283151 -14.829400 -1.101850 -22.291500 -0.000108 -0.000004 13.140800 5.346430 -1.313620 -2.192480 -6.469440 -0.000000 -168.213000 -9.610720 -10.842200 39.081100 -0.000007 -0.000012 -0.453040 0.345343 52.683500 40.985400 -0.000006 -0.000013 -1.579910 5.488220 -81.858600 11.754300 -0.000000 0.000003 -0.000505 -0.004016 -16.724300 -2.192510 6.469440 -0.000001 -177.315000 15.897700 170.685000 -39.081100 -0.002282 -0.040193 0.070357 -0.055142 50.591500 -40.985400 0.000008 0.000006 8.466880 3.792340 -81.422200 -11.754300 -0.000006 -0.000006 -0.411248 -0.508025 -17.512600
0.000000 0.000000 0.000000 0.000000 0.000000 -0.000000 -4.806170 87.518200 1.631440 85.286300 0.843931 7.822420 15.735700 0.000005 -0.000001 72.108700 83.708600 -76.067300 8.984550 -0.406207 -0.000000 4.098720 -3.733300 -7.776460 16.377300 -0.000001 -0.000001 1.048680 1.253490 -0.086121 6.456720 -0.000001 -0.000000 -4.176930 4.294720 3.972830 12.994200 -0.242716 4.980390 -90.568600 1.651320 -70.995800 5.348090 -0.000007 -0.000001 -61.316600 16.670300 -10.666600 24.328600 0.000019 0.000005 6.181100 11.039000 -29.491700 22.291600 -0.000001 0.000005 19.949600 5.256470 1.271480 12.994500 -0.242716 -4.980390 87.962500 6.797400 -73.267400 -5.348130 -0.000001 -0.000004 -48.897800 -28.718500 -6.989280 -24.328900 0.000322 -0.000009 -0.002677 -21.702800 -0.000121 -22.291500 -0.000108 -0.000004 18.127800 5.313050 -0.291386 -2.192480 -6.469440 -0.000000 -167.909000 -7.856320 -9.470270 39.081100 -0.000007 -0.000012 -0.390398 0.382028 45.621700 40.985400 -0.000006 -0.000013 -1.912660 7.244870 -78.106000 11.754300 -0.000000 0.000003 -0.000345 -0.002925 -16.686000 -2.192510 6.469440 -0.000001 -176.257000 17.824100 173.052000 -39.081100 -0.002282 -0.040193 0.063683 -0.064032 43.334500 -40.985400 0.000008 0.000006 8.061960 2.675160 -77.548300 -11.754300 -0.000006 -0.000006 -0.669913 -0.816733 -18.095800
0.000000 0.000000 0.000000 0.000000 0.000000 -0.000000 -5.206980 89.144500 2.129780 85.472200 2.026530 6.472820 15.735700 0.000005 -0.000001 67.641700 84.848000 -72.819700 8.984550 -0.406207 -0.000000 1.623520 -3.640650 -10.296900 16.377300 -0.000001 -0.000001 3.676260 1.118220 -1.113190 6.456720 -0.000001 -0.000000 -2.860840 3.685680 5.520150 12.994200 -0.242716 4.980390 -90.557500 1.512800 -69.770900 5.348090 -0.000007 -0.000001 -60.032100 15.521900 -9.924530 24.328600 0.000019 0.000005 2.332430 4.285780 -28.587700 22.291600 -0.000001 0.000005 19.810700 5.315340 -0.365341 12.994500 -0.242716 -4.980390 88.619400 4.476160 -72.842100 -5.348130 -0.000001 -0.000004 -40.121900 -42.480000 -13.483600 -24.328900 0.000322 -0.000009 -1.644820 -33.448200 -2.969560 -22.291500 -0.000108 -0.000004 17.015800 5.349910 -1.397400 -2.192480 -6.469440 -0.000000 -168.326000 -7.069000 -7.512150 39.081100 -0.000007 -0.000012 -0.336633 0.416493 38.947800 40.985400 -0.000006 -0.000013 -2.582050 6.873970 -74.886500 11.754300 -0.000000 0.000003 -0.000192 -0.001787 -16.645000 -2.192510 6.469440 -0.000001 -176.338000 19.778600 174.932000 -39.081100 -0.002282 -0.040193 0.050724 -0.062386 37.249800 -40.985400 0.000008 0.000006 7.904560 4.418850 -73.606700 -11.754300 -0.000006 -0.000006 -1.018430 -1.213840 -19.171200
